<?xml version="1.0" standalone="no"?>
<!DOCTYPE svg PUBLIC "-//W3C//DTD SVG 20010904//EN"
 "http://www.w3.org/TR/2001/REC-SVG-20010904/DTD/svg10.dtd">
<svg version="1.0" xmlns="http://www.w3.org/2000/svg"
 width="916.000000pt" height="618.000000pt" viewBox="0 0 916.000000 618.000000"
 preserveAspectRatio="xMidYMid meet">
<metadata>
Created by potrace 1.16, written by Peter Selinger 2001-2019
</metadata>
<g transform="translate(0.000000,618.000000) scale(0.100000,-0.100000)"
fill="#000000" stroke="none">
<path d="M28 6164 l-28 -15 0 -2904 0 -2904 80 -30 c109 -43 219 -67 385 -88
121 -15 234 -18 842 -18 l703 0 0 -73 c0 -70 10 -109 34 -124 6 -4 1610 -8
3564 -8 l3552 0 0 265 0 265 -2902 2 -2903 3 -3 2629 c-1 1935 1 2632 9 2642
10 12 483 14 2905 14 l2894 0 0 120 0 120 -2983 0 -2982 0 -36 -24 c-55 -37
-69 -77 -69 -193 l0 -98 -20 25 c-11 14 -23 34 -26 45 -4 11 -10 22 -13 25 -4
3 -17 21 -28 40 -28 45 -133 149 -198 196 -27 20 -80 51 -117 70 l-68 34
-1282 0 c-1118 -1 -1287 -3 -1310 -16z m2202 -199 c65 -33 60 137 60 -2196 l0
-2121 -34 -34 -34 -34 -962 0 -962 0 -34 34 -34 34 0 2121 c0 2325 -4 2162 58
2195 41 23 1899 23 1942 1z m878 -5612 l13 -23 -233 0 -233 0 64 36 c36 20 78
48 95 62 95 85 170 161 189 192 12 19 27 41 34 48 7 7 13 20 13 28 0 8 4 14 9
14 5 0 12 10 17 23 5 13 10 -52 14 -168 3 -127 9 -197 18 -212z"/>
</g>
</svg>
